HIERARCHY
ROOT Hips
{
  OFFSET 5.72205e-005 65.662 3.42586
  CHANNELS 6 Xposition Yposition Zposition Zrotation Xrotation Yrotation
  JOINT Chest
  {
    OFFSET 0 8.7983 -4.7612
    CHANNELS 6 Xposition Yposition Zposition Zrotation Xrotation Yrotation
    JOINT Chest2
    {
      OFFSET 0 8.0291 0.4195
      CHANNELS 6 Xposition Yposition Zposition Zrotation Xrotation Yrotation
      JOINT Chest3
      {
        OFFSET 0 9.9351 -2.2114
        CHANNELS 6 Xposition Yposition Zposition Zrotation Xrotation Yrotation
        JOINT Neck
        {
          OFFSET 0 22.3885 -0.4656
          CHANNELS 6 Xposition Yposition Zposition Zrotation Xrotation Yrotation
          JOINT Head
          {
            OFFSET -0.0001 12.643 3.4389
            CHANNELS 6 Xposition Yposition Zposition Zrotation Xrotation Yrotation
            End Site
            {
              OFFSET 0.0001 17.6655 0.5274
            }
          }
        }
        JOINT LeftCollar
        {
          OFFSET 2.2603 21.606 7.4023
          CHANNELS 6 Xposition Yposition Zposition Zrotation Xrotation Yrotation
          JOINT LeftShoulder
          {
            OFFSET 13.5163 -1.1332 -5.0146
            CHANNELS 6 Xposition Yposition Zposition Zrotation Xrotation Yrotation
            JOINT LeftElbow
            {
              OFFSET -0.0995 -28.05 -0.2431
              CHANNELS 6 Xposition Yposition Zposition Zrotation Xrotation Yrotation
              JOINT LeftWrist
              {
                OFFSET 0.0679 -23.3996 -0.1402
                CHANNELS 6 Xposition Yposition Zposition Zrotation Xrotation Yrotation
                JOINT LeftFinger1
                {
                  OFFSET 0.7932 -9.069 2.5189
                  CHANNELS 6 Xposition Yposition Zposition Zrotation Xrotation Yrotation
                  JOINT LeftFinger11
                  {
                    OFFSET -0.8272 -3.3923 0.5977
                    CHANNELS 6 Xposition Yposition Zposition Zrotation Xrotation Yrotation
                    JOINT LeftFinger12
                    {
                      OFFSET -0.5649 -2.3158 0.4082
                      CHANNELS 6 Xposition Yposition Zposition Zrotation Xrotation Yrotation
                      End Site
                      {
                        OFFSET -0.4919 -1.6479 0.2673
                      }
                    }
                  }
                }
                JOINT LeftFinger2
                {
                  OFFSET 0.9159 -9.2044 0.2193
                  CHANNELS 6 Xposition Yposition Zposition Zrotation Xrotation Yrotation
                  JOINT LeftFinger21
                  {
                    OFFSET 0.0117 -4.1944 -0.0248
                    CHANNELS 6 Xposition Yposition Zposition Zrotation Xrotation Yrotation
                    JOINT LeftFinger22
                    {
                      OFFSET 0.0071 -2.3249 -0.0142
                      CHANNELS 6 Xposition Yposition Zposition Zrotation Xrotation Yrotation
                      End Site
                      {
                        OFFSET -0.1475 -2.0882 0.0028
                      }
                    }
                  }
                }
                JOINT LeftFinger3
                {
                  OFFSET 0.6113 -8.7231 -2.0637
                  CHANNELS 6 Xposition Yposition Zposition Zrotation Xrotation Yrotation
                  JOINT LeftFinger31
                  {
                    OFFSET -0.1927 -3.8059 -0.2383
                    CHANNELS 6 Xposition Yposition Zposition Zrotation Xrotation Yrotation
                    JOINT LeftFinger32
                    {
                      OFFSET -0.1091 -2.1688 -0.1362
                      CHANNELS 6 Xposition Yposition Zposition Zrotation Xrotation Yrotation
                      End Site
                      {
                        OFFSET -0.2358 -1.9176 -0.0906
                      }
                    }
                  }
                }
                JOINT LeftFinger4
                {
                  OFFSET -0.6151 -8.0947 -3.5641
                  CHANNELS 6 Xposition Yposition Zposition Zrotation Xrotation Yrotation
                  JOINT LeftFinger41
                  {
                    OFFSET -0.4882 -2.341 -0.6462
                    CHANNELS 6 Xposition Yposition Zposition Zrotation Xrotation Yrotation
                    JOINT LeftFinger42
                    {
                      OFFSET -0.3575 -1.7167 -0.4742
                      CHANNELS 6 Xposition Yposition Zposition Zrotation Xrotation Yrotation
                      End Site
                      {
                        OFFSET -0.4187 -1.5237 -0.3496
                      }
                    }
                  }
                }
                JOINT LeftFinger0
                {
                  OFFSET -1.42 -1.8761 1.4223
                  CHANNELS 6 Xposition Yposition Zposition Zrotation Xrotation Yrotation
                  JOINT LeftFinger01
                  {
                    OFFSET -1.1471 -3.4929 2.6334
                    CHANNELS 6 Xposition Yposition Zposition Zrotation Xrotation Yrotation
                    JOINT LeftFinger02
                    {
                      OFFSET -0.823 -2.3 1.6571
                      CHANNELS 6 Xposition Yposition Zposition Zrotation Xrotation Yrotation
                      End Site
                      {
                        OFFSET -0.5822 -1.6914 1.1582
                      }
                    }
                  }
                }
              }
            }
          }
        }
        JOINT RightCollar
        {
          OFFSET -2.2603 21.606 7.4023
          CHANNELS 6 Xposition Yposition Zposition Zrotation Xrotation Yrotation
          JOINT RightShoulder
          {
            OFFSET -13.5187 -1.1334 -5.0155
            CHANNELS 6 Xposition Yposition Zposition Zrotation Xrotation Yrotation
            JOINT RightElbow
            {
              OFFSET 0.0994 -28.0499 -0.2431
              CHANNELS 6 Xposition Yposition Zposition Zrotation Xrotation Yrotation
              JOINT RightWrist
              {
                OFFSET -0.0679 -23.3996 -0.1402
                CHANNELS 6 Xposition Yposition Zposition Zrotation Xrotation Yrotation
                JOINT RightFinger1
                {
                  OFFSET -0.7932 -9.0691 2.5189
                  CHANNELS 6 Xposition Yposition Zposition Zrotation Xrotation Yrotation
                  JOINT RightFinger11
                  {
                    OFFSET 0.8272 -3.3923 0.5977
                    CHANNELS 6 Xposition Yposition Zposition Zrotation Xrotation Yrotation
                    JOINT RightFinger12
                    {
                      OFFSET 0.565 -2.3158 0.4082
                      CHANNELS 6 Xposition Yposition Zposition Zrotation Xrotation Yrotation
                      End Site
                      {
                        OFFSET 0.4919 -1.6479 0.2673
                      }
                    }
                  }
                }
                JOINT RightFinger2
                {
                  OFFSET -0.916 -9.2044 0.2193
                  CHANNELS 6 Xposition Yposition Zposition Zrotation Xrotation Yrotation
                  JOINT RightFinger21
                  {
                    OFFSET -0.0117 -4.1944 -0.0248
                    CHANNELS 6 Xposition Yposition Zposition Zrotation Xrotation Yrotation
                    JOINT RightFinger22
                    {
                      OFFSET -0.0071 -2.3249 -0.0142
                      CHANNELS 6 Xposition Yposition Zposition Zrotation Xrotation Yrotation
                      End Site
                      {
                        OFFSET 0.1475 -2.0882 0.0028
                      }
                    }
                  }
                }
                JOINT RightFinger3
                {
                  OFFSET -0.6113 -8.7231 -2.0637
                  CHANNELS 6 Xposition Yposition Zposition Zrotation Xrotation Yrotation
                  JOINT RightFinger31
                  {
                    OFFSET 0.1927 -3.8059 -0.2383
                    CHANNELS 6 Xposition Yposition Zposition Zrotation Xrotation Yrotation
                    JOINT RightFinger32
                    {
                      OFFSET 0.1091 -2.1688 -0.1362
                      CHANNELS 6 Xposition Yposition Zposition Zrotation Xrotation Yrotation
                      End Site
                      {
                        OFFSET 0.2358 -1.9176 -0.0906
                      }
                    }
                  }
                }
                JOINT RightFinger4
                {
                  OFFSET 0.6151 -8.0947 -3.564
                  CHANNELS 6 Xposition Yposition Zposition Zrotation Xrotation Yrotation
                  JOINT RightFinger41
                  {
                    OFFSET 0.4882 -2.341 -0.6462
                    CHANNELS 6 Xposition Yposition Zposition Zrotation Xrotation Yrotation
                    JOINT RightFinger42
                    {
                      OFFSET 0.3574 -1.7166 -0.4742
                      CHANNELS 6 Xposition Yposition Zposition Zrotation Xrotation Yrotation
                      End Site
                      {
                        OFFSET 0.4187 -1.5237 -0.3496
                      }
                    }
                  }
                }
                JOINT RightFinger0
                {
                  OFFSET 1.4199 -1.8761 1.4221
                  CHANNELS 6 Xposition Yposition Zposition Zrotation Xrotation Yrotation
                  JOINT RightFinger01
                  {
                    OFFSET 1.1472 -3.4929 2.6336
                    CHANNELS 6 Xposition Yposition Zposition Zrotation Xrotation Yrotation
                    JOINT RightFinger02
                    {
                      OFFSET 0.8229 -2.3 1.6571
                      CHANNELS 6 Xposition Yposition Zposition Zrotation Xrotation Yrotation
                      End Site
                      {
                        OFFSET 0.5822 -1.6914 1.1582
                      }
                    }
                  }
                }
              }
            }
          }
        }
      }
    }
  }
  JOINT RightHip
  {
    OFFSET -9.412 3.9771 -0.7758
    CHANNELS 6 Xposition Yposition Zposition Zrotation Xrotation Yrotation
    JOINT RightKnee
    {
      OFFSET -0.7531 -40.938 0
      CHANNELS 6 Xposition Yposition Zposition Zrotation Xrotation Yrotation
      JOINT RightAnkle
      {
        OFFSET 0 -40.1986 0
        CHANNELS 6 Xposition Yposition Zposition Zrotation Xrotation Yrotation
        JOINT RightToe
        {
          OFFSET 0 -4.4182 9.239
          CHANNELS 6 Xposition Yposition Zposition Zrotation Xrotation Yrotation
          End Site
          {
            OFFSET 0 0 6.1981
          }
        }
      }
    }
  }
  JOINT LeftHip
  {
    OFFSET 9.4119 3.9773 -0.7758
    CHANNELS 6 Xposition Yposition Zposition Zrotation Xrotation Yrotation
    JOINT LeftKnee
    {
      OFFSET 0.7532 -40.9383 0
      CHANNELS 6 Xposition Yposition Zposition Zrotation Xrotation Yrotation
      JOINT LeftAnkle
      {
        OFFSET 0 -40.1986 0
        CHANNELS 6 Xposition Yposition Zposition Zrotation Xrotation Yrotation
        JOINT LeftToe
        {
          OFFSET 0 -4.4182 9.239
          CHANNELS 6 Xposition Yposition Zposition Zrotation Xrotation Yrotation
          End Site
          {
            OFFSET 0 0 6.1981
          }
        }
      }
    }
  }
}
MOTION
Frames:	4
Frame Time:	0.0333333
0.80668 12.9964 21.5039 173.405 -88.2826 -6.38878 0 8.7983 -4.7612 -0.093733 -3.60124 -0.280082 -1.11022e-016 8.0291 0.4195 -0.205754 -7.20195 -0.567765 1.11022e-016 9.9351 -2.2114 -0.205755 -7.20198 -0.567767 0 22.3885 -0.4656 7.00786 -2.93537 -4.641 -0.0001 12.643 3.4389 1.2059e-006 -13.086 5.45717e-007 2.2603 21.606 7.4023 10.55 6.08121 -29.5455 13.5163 -1.1332 -5.0146 81.5215 -16.6396 30.9982 -0.0995 -28.05 -0.2431 -15.6082 -42.5679 -16.6059 0.0679 -23.3996 -0.1402 58.6107 -13.9775 8.03032 0.7932 -9.06901 2.5189 -3.31229e-006 -1.97177e-007 -1.00215e-007 -0.8272 -3.3923 0.5977 3.18055e-015 5.96354e-016 -7.45443e-016 -0.5649 -2.3158 0.4082 3.18055e-015 2.18663e-015 -5.56597e-015 0.9159 -9.20441 0.2193 -3.31229e-006 -1.97177e-007 -1.00215e-007 0.0117 -4.1944 -0.0248 -0.0128108 0.00232269 8.33876e-005 0.0071 -2.3249 -0.0142 8.41401e-032 -7.95139e-016 6.06293e-015 0.6113 -8.72311 -2.0637 -3.31229e-006 -1.97177e-007 -1.00215e-007 -0.1927 -3.8059 -0.2383 -0.0160359 0.00298512 0.00085084 -0.1091 -2.1688 -0.1362 4.77083e-015 9.93923e-016 3.23025e-015 -0.6151 -8.09471 -3.5641 -3.31229e-006 -1.97177e-007 -1.00215e-007 -0.4882 -2.341 -0.6462 -0.012604 0.00312438 0.00282673 -0.3575 -1.7167 -0.4742 2.47909e-006 -3.38204e-006 -8.5097e-007 -1.42 -1.8761 1.4223 -3.31229e-006 -1.97177e-007 -1.00215e-007 -1.1471 -3.4929 2.6334 3.18055e-015 5.96354e-016 -7.45443e-016 -0.823 -2.3 1.6571 3.18055e-015 2.18663e-015 -5.56597e-015 -2.2603 21.606 7.4023 21.7483 3.59686 9.56965 -13.5187 -1.1334 -5.0155 -73.7916 -31.1209 -0.36561 0.0994 -28.0499 -0.2431 -12.5469 -29.0763 -14.1065 -0.0679 -23.3996 -0.1402 -57.3765 -11.1249 -6.5377 -0.7932 -9.06911 2.5189 1.3151e-006 2.18701e-006 1.03864e-006 0.8272 -3.3923 0.5977 3.18055e-015 -6.36111e-015 -0 0.565 -2.3158 0.4082 1.92419e-006 -2.70965e-007 5.82653e-006 -0.916 -9.20441 0.2193 1.3151e-006 2.18701e-006 1.03864e-006 -0.0117 -4.1944 -0.0248 0.0129345 0.00231674 -7.54969e-005 -0.0071 -2.3249 -0.0142 1.01153e-005 1.06257e-006 -1.24805e-006 -0.6113 -8.72311 -2.0637 1.3151e-006 2.18701e-006 1.03864e-006 0.1927 -3.8059 -0.2383 0.0163581 0.00303844 -0.000871319 0.1091 -2.1688 -0.1362 5.46439e-006 -3.0656e-006 -6.14849e-007 0.6151 -8.09471 -3.564 1.3151e-006 2.18701e-006 1.03864e-006 0.4882 -2.341 -0.6462 0.0145945 0.00367981 -0.00325816 0.3574 -1.7166 -0.4742 2.6299e-006 1.70698e-006 2.07748e-006 1.4199 -1.8761 1.4221 1.3151e-006 2.18701e-006 1.03864e-006 1.1472 -3.4929 2.6336 3.18055e-015 -6.36111e-015 -0 0.8229 -2.3 1.6571 1.92419e-006 -2.70965e-007 5.82653e-006 -9.412 3.9771 -0.7758 -15.1432 -36.744 -25.73 -0.7531 -40.938 3.55271e-015 7.70039 47.7041 -4.51802 0 -40.1986 0 -2.74842 44.9782 5.8529 3.55271e-015 -4.4182 9.239 -9.77097e-007 -4.85441e-007 -1.38254e-006 9.4119 3.9773 -0.7758 14.2994 -35.9264 25.1878 0.7532 -40.9383 0 -7.45768 45.9519 4.57088 0 -40.1986 0 2.72609 44.6973 -5.7172 -3.55271e-015 -4.4182 9.239 7.95139e-016 3.18055e-015 7.95139e-016 
0.807497 13.196 21.6318 175.356 -87.4294 -4.4277 0 8.7983 -4.7612 -0.0923763 -3.67712 -0.280782 0 8.0291 0.4195 -0.203482 -7.35363 -0.569283 1.11022e-016 9.9351 -2.2114 -0.203482 -7.35364 -0.569284 2.22045e-016 22.3885 -0.4656 7.01093 -3.38608 -4.58549 -0.0001 12.643 3.4389 7.03854e-007 -13.1526 1.23896e-006 2.2603 21.606 7.4023 10.7943 5.68526 -29.0967 13.5163 -1.1332 -5.0146 81.4748 -16.7686 30.9751 -0.0995 -28.05 -0.2431 -15.9141 -43.0125 -16.8291 0.0679 -23.3996 -0.1402 58.6647 -13.6456 7.95395 0.7932 -9.069 2.5189 6.36111e-015 1.59028e-015 -1.63997e-015 -0.8272 -3.3923 0.5977 7.95139e-015 1.39149e-015 -2.48481e-016 -0.5649 -2.3158 0.4082 6.36111e-015 5.96354e-016 -3.97569e-016 0.9159 -9.2044 0.2193 6.36111e-015 1.59028e-015 -1.63997e-015 0.0117 -4.1944 -0.0248 -0.0128287 0.00234514 9.29113e-005 0.0071 -2.3249 -0.0142 -1.08623e-032 1.98785e-016 3.13086e-015 0.6113 -8.7231 -2.0637 6.36111e-015 1.59028e-015 -1.63997e-015 -0.1927 -3.8059 -0.2383 -0.0160008 0.00299214 0.00085821 -0.1091 -2.1688 -0.1362 1.59028e-015 5.96354e-016 -1.2921e-015 -0.6151 -8.0947 -3.5641 6.36111e-015 1.59028e-015 -1.63997e-015 -0.4882 -2.341 -0.6462 -0.0126188 0.00312433 0.00283286 -0.3575 -1.7167 -0.4742 1.20693e-032 -3.97569e-016 1.73937e-015 -1.42 -1.8761 1.4223 6.36111e-015 1.59028e-015 -1.63997e-015 -1.1471 -3.4929 2.6334 7.95139e-015 1.39149e-015 -2.48481e-016 -0.823 -2.3 1.6571 6.36111e-015 5.96354e-016 -3.97569e-016 -2.2603 21.606 7.4023 21.5382 3.39113 9.34349 -13.5187 -1.1334 -5.0155 -73.6828 -31.3512 -0.290512 0.0994 -28.0499 -0.2431 -12.6089 -29.3468 -14.1364 -0.0679 -23.3996 -0.1402 -57.5053 -10.9075 -6.61168 -0.7932 -9.06911 2.5189 -1.59028e-015 0 3.18055e-015 0.8272 -3.3923 0.5977 -4.77083e-015 3.18055e-015 2.38542e-015 0.565 -2.3158 0.4082 -3.18055e-015 -3.18055e-015 3.97569e-015 -0.915999 -9.20441 0.2193 -1.59028e-015 0 3.18055e-015 -0.0117 -4.1944 -0.0248 0.0129581 0.00231644 -9.1279e-005 -0.0071 -2.3249 -0.0142 -4.77083e-015 -2.22639e-014 -1.59028e-015 -0.6113 -8.72311 -2.0637 -1.59028e-015 0 3.18055e-015 0.1927 -3.8059 -0.2383 0.0163432 0.00303018 -0.000873317 0.1091 -2.1688 -0.1362 -3.18055e-015 6.36111e-015 2.38542e-015 0.6151 -8.09471 -3.564 -1.59028e-015 0 3.18055e-015 0.4882 -2.341 -0.6462 0.0146011 0.00368098 -0.00326872 0.3574 -1.7166 -0.4742 -6.36111e-015 3.18055e-015 -7.95139e-016 1.4199 -1.8761 1.4221 -1.59028e-015 0 3.18055e-015 1.1472 -3.4929 2.6336 -4.77083e-015 3.18055e-015 2.38542e-015 0.8229 -2.3 1.6571 -3.18055e-015 -3.18055e-015 3.97569e-015 -9.412 3.9771 -0.7758 -15.568 -37.7622 -26.5117 -0.7531 -40.938 -1.06581e-014 7.65179 47.9915 -4.5162 0 -40.1986 -3.55271e-015 -3.18451 44.961 6.28184 3.55271e-015 -4.4182 9.239 -4.88681e-007 -1.15271e-008 -6.91199e-007 9.4119 3.9773 -0.7758 14.7274 -36.975 25.9441 0.7532 -40.9383 3.55271e-015 -7.4325 46.2806 4.58735 0 -40.1986 3.55271e-015 3.14565 44.6593 -6.14077 0 -4.4182 9.239 2.27949e-006 -2.57891e-008 3.47369e-007 
0.808333 13.3963 21.7579 176.333 -86.5751 -3.44238 0 8.7983 -4.7612 -0.0910146 -3.75288 -0.281471 0 8.0291 0.4195 -0.201199 -7.50524 -0.570774 0 9.9351 -2.2114 -0.2012 -7.50528 -0.570775 0 22.3885 -0.4656 7.01444 -3.83685 -4.52991 -0.0001 12.643 3.4389 2.67172e-007 -13.2192 -1.10577e-006 2.2603 21.606 7.4023 11.0414 5.2914 -28.6465 13.5163 -1.1332 -5.0146 81.4349 -16.8962 30.9538 -0.0995 -28.05 -0.2431 -16.2303 -43.4541 -17.0562 0.0679 -23.3996 -0.1402 58.7191 -13.3138 7.87737 0.7932 -9.069 2.5189 -3.31213e-006 -1.59417e-007 -9.99344e-008 -0.8272 -3.3923 0.5977 1.59028e-015 -1.39149e-015 3.8266e-015 -0.5649 -2.3158 0.4082 -1.53162e-006 -7.32181e-007 3.24284e-006 0.9159 -9.2044 0.2193 -3.31213e-006 -1.59417e-007 -9.99344e-008 0.0117 -4.1944 -0.0248 -0.0127856 0.00232898 9.41717e-005 0.0071 -2.3249 -0.0142 -1.59028e-015 1.19271e-015 1.68967e-015 0.6113 -8.7231 -2.0637 -3.31213e-006 -1.59417e-007 -9.99344e-008 -0.1927 -3.8059 -0.2383 -0.0160521 0.00299642 0.000862673 -0.1091 -2.1688 -0.1362 -3.87941e-032 5.96354e-016 3.72721e-015 -0.6151 -8.0947 -3.5641 -3.31213e-006 -1.59417e-007 -9.99344e-008 -0.4882 -2.341 -0.6462 -0.012615 0.0031353 0.00284505 -0.3575 -1.7167 -0.4742 -1.59028e-015 1.19271e-015 -1.25731e-014 -1.42 -1.8761 1.4223 -3.31213e-006 -1.59417e-007 -9.99344e-008 -1.1471 -3.4929 2.6334 1.59028e-015 -1.39149e-015 3.8266e-015 -0.823 -2.3 1.6571 -1.53162e-006 -7.32181e-007 3.24284e-006 -2.2603 21.606 7.4023 21.3273 3.18632 9.1166 -13.5187 -1.1334 -5.0155 -73.5691 -31.5793 -0.212458 0.0994 -28.0499 -0.2431 -12.6753 -29.6193 -14.1673 -0.0679 -23.3996 -0.1402 -57.6335 -10.6899 -6.68511 -0.7932 -9.0691 2.5189 -3.18055e-015 6.36111e-015 -0 0.8272 -3.3923 0.5977 1.51795e-006 5.46777e-006 -3.73249e-006 0.565 -2.3158 0.4082 1.61461e-006 -6.71575e-006 6.82959e-006 -0.916 -9.2044 0.2193 -3.18055e-015 6.36111e-015 -0 -0.0117 -4.1944 -0.0248 0.0129298 0.0023188 -8.12437e-005 -0.0071 -2.3249 -0.0142 -0 0 3.18055e-015 -0.6113 -8.7231 -2.0637 -3.18055e-015 6.36111e-015 -0 0.1927 -3.8059 -0.2383 0.0163203 0.00304597 -0.000881842 0.1091 -2.1688 -0.1362 3.18055e-015 -1.27222e-014 1.59028e-015 0.6151 -8.0947 -3.564 -3.18055e-015 6.36111e-015 -0 0.4882 -2.341 -0.6462 0.0145629 0.00367768 -0.0032626 0.3574 -1.7166 -0.4742 -4.77083e-015 0 -0 1.4199 -1.8761 1.4221 -3.18055e-015 6.36111e-015 -0 1.1472 -3.4929 2.6336 1.51795e-006 5.46777e-006 -3.73249e-006 0.8229 -2.3 1.6571 1.61461e-006 -6.71575e-006 6.82959e-006 -9.412 3.9771 -0.7758 -16.016 -38.7757 -27.3133 -0.7531 -40.938 3.55271e-015 7.60321 48.2791 -4.51441 0 -40.1986 0 -3.62052 44.9417 6.71057 0 -4.4182 9.239 1.79329e-006 2.68991e-006 -3.06602e-007 9.4119 3.9773 -0.7758 15.1792 -38.0174 26.7206 0.7532 -40.9383 3.55271e-015 -7.40883 46.6086 4.60399 0 -40.1986 0 3.56478 44.6189 -6.56372 0 -4.4182 9.239 7.89217e-006 2.64882e-007 8.22588e-007 
0.809189 13.5973 21.8824 176.917 -85.7205 -2.8489 0 8.7983 -4.7612 -0.089647 -3.82862 -0.282145 0 8.0291 0.4195 -0.198907 -7.65675 -0.572233 0 9.9351 -2.2114 -0.198907 -7.65676 -0.572233 0 22.3885 -0.4656 7.01838 -4.28778 -4.47426 -0.0001 12.643 3.4389 1.70921e-006 -13.2857 -1.45104e-007 2.2603 21.606 7.4023 11.2914 4.8995 -28.1951 13.5163 -1.1332 -5.0146 81.3886 -17.0249 30.9306 -0.0995 -28.05 -0.2431 -16.5462 -43.8967 -17.2894 0.0679 -23.3996 -0.1402 58.7738 -12.9821 7.80055 0.7932 -9.06901 2.5189 1.59028e-015 1.98785e-016 1.88845e-015 -0.8272 -3.3923 0.5977 1.59028e-015 -5.96354e-016 1.83876e-015 -0.5649 -2.3158 0.4082 1.59028e-015 1.98785e-016 1.88845e-015 0.9159 -9.20441 0.2193 1.59028e-015 1.98785e-016 1.88845e-015 0.0117 -4.1944 -0.0248 -0.0127978 0.00231916 7.6671e-005 0.0071 -2.3249 -0.0142 -4.77083e-015 0 5.56597e-015 0.6113 -8.72311 -2.0637 1.59028e-015 1.98785e-016 1.88845e-015 -0.1927 -3.8059 -0.2383 -0.016063 0.0029974 0.000857688 -0.1091 -2.1688 -0.1362 2.48026e-006 -3.41519e-006 -8.49936e-007 -0.6151 -8.09471 -3.5641 1.59028e-015 1.98785e-016 1.88845e-015 -0.4882 -2.341 -0.6462 -0.0125623 0.00311749 0.00282887 -0.3575 -1.7167 -0.4742 -1.59028e-015 2.18663e-015 -1.00386e-014 -1.42 -1.8761 1.4223 1.59028e-015 1.98785e-016 1.88845e-015 -1.1471 -3.4929 2.6334 1.59028e-015 -5.96354e-016 1.83876e-015 -0.823 -2.3 1.6571 1.59028e-015 1.98785e-016 1.88845e-015 -2.2603 21.606 7.4023 21.1156 2.98227 8.88906 -13.5187 -1.1334 -5.0155 -73.4559 -31.8078 -0.134307 0.0994 -28.0499 -0.2431 -12.741 -29.8913 -14.1985 -0.0679 -23.3996 -0.1402 -57.7614 -10.4722 -6.75794 -0.7932 -9.06911 2.5189 -7.95139e-015 6.36111e-015 7.95139e-015 0.8272 -3.3923 0.5977 -6.36111e-015 6.36111e-015 8.74653e-015 0.565 -2.3158 0.4082 -7.95139e-015 3.18055e-015 7.15625e-015 -0.916 -9.20441 0.2193 -7.95139e-015 6.36111e-015 7.95139e-015 -0.0117 -4.1944 -0.0248 0.0129906 0.00232284 -8.85654e-005 -0.0071 -2.3249 -0.0142 1.59028e-015 -6.36111e-015 7.95139e-016 -0.6113 -8.72311 -2.0637 -7.95139e-015 6.36111e-015 7.95139e-015 0.1927 -3.8059 -0.2383 0.0163625 0.0030358 -0.000881757 0.1091 -2.1688 -0.1362 1.59028e-015 -9.54166e-015 -7.95139e-016 0.6151 -8.09471 -3.564 -7.95139e-015 6.36111e-015 7.95139e-015 0.4882 -2.341 -0.6462 0.014597 0.00368013 -0.00327101 0.3574 -1.7166 -0.4742 -3.18055e-015 6.36111e-015 -1.59028e-015 1.4199 -1.8761 1.4221 -7.95139e-015 6.36111e-015 7.95139e-015 1.1472 -3.4929 2.6336 -6.36111e-015 6.36111e-015 8.74653e-015 0.8229 -2.3 1.6571 -7.95139e-015 3.18055e-015 7.15625e-015 -9.412 3.9771 -0.7758 -16.4888 -39.7829 -28.1362 -0.7531 -40.938 0 7.55516 48.5663 -4.5124 0 -40.1986 0 -4.05635 44.92 7.139 0 -4.4182 9.239 -9.77972e-007 1.04791e-005 -1.38211e-006 9.4119 3.9773 -0.7758 15.655 -39.0547 27.5179 0.7532 -40.9383 0 -7.38543 46.937 4.62086 0 -40.1986 -3.55271e-015 3.98343 44.5765 -6.98604 0 -4.4182 9.239 4.99209e-007 -5.02327e-007 6.82777e-007 
